<?xml version="1.0" encoding="UTF-8"?>
<svg id="Layer_1" xmlns="http://www.w3.org/2000/svg" version="1.1" viewBox="0 0 3203 829">
  <!-- Generator: Adobe Illustrator 29.8.3, SVG Export Plug-In . SVG Version: 2.1.1 Build 3)  -->
  <defs>
    <style>
      .st0 {
        fill: #fff;
      }

      .st1 {
        fill: #ed1c24;
      }
    </style>
  </defs>
  <path class="st0" d="M712.47,238.96c-.68,0-1.31,0-1.98.04-21.93,1.35-39.64,14.59-44.53,39.22-2.7,13.62,1.27,29.01,4.05,43.27,8.52,43.31,29.22,84.51,20.92,130.6-11.34,63.13-59.16,106.1-116.01,106.1-1.01,0-2.02,0-3.08-.04-58.99-1.6-104.37-44.78-121.02-100.4-9.61-32.18-16.57-65.15-26.23-97.33-5.78-19.23-27.49-33.23-46.64-33.23-1.98,0-3.96.17-5.9.46-24.12,3.96-41.75,22.81-39.01,47.86,2.95,27.11,10.25,53.85,16.4,80.54,14.55,63,42.63,117.82,96.95,156.15,39.05,27.54,82.1,42.04,127.31,42.04,12.65,0,25.51-1.14,38.46-3.46,111.16-19.82,180.57-120.77,175.8-221.64,3.33-54.53-18.6-104.07-31.42-155.27-5.19-20.79-26.48-34.92-44.07-34.92Z"/>
  <path class="st0" d="M1110.03,303.56h93.19c24.25,0,45.04,2.23,62.37,6.75,17.33,4.51,33.06,12.9,47.19,25.3,36.77,31.46,55.16,79.32,55.16,143.54,0,21.21-1.86,40.52-5.53,58.02-3.71,17.5-9.4,33.27-17.08,47.31-7.71,14.04-17.58,26.61-29.6,37.7-9.49,8.52-19.82,15.35-31.08,20.45-11.26,5.14-23.32,8.77-36.22,10.84-12.91,2.11-27.5,3.12-43.69,3.12h-93.19c-12.99,0-22.82-1.98-29.39-5.9-6.58-3.92-10.88-9.49-12.91-16.61-2.02-7.13-2.99-16.4-2.99-27.83v-258.88c0-15.39,3.46-26.57,10.37-33.48,6.83-6.87,18.01-10.33,33.4-10.33ZM1137.73,360.15v239.6h54.19c11.89,0,21.21-.34,27.92-.97,6.74-.63,13.7-2.23,20.96-4.81,7.21-2.57,13.49-6.16,18.76-10.84,23.91-20.24,35.89-55.07,35.89-104.49,0-34.83-5.27-60.93-15.77-78.27-10.5-17.33-23.49-28.38-38.88-33.1-15.4-4.72-34.03-7.08-55.88-7.08h-47.19v-.04Z"/>
  <path class="st0" d="M1663.92,358.72h-161.13v86.7h148.35c10.93,0,19.06,2.44,24.46,7.34,5.36,4.89,8.06,11.34,8.06,19.4s-2.66,14.59-7.93,19.61-13.5,7.59-24.54,7.59h-148.35v100.4h166.65c11.21,0,19.69,2.61,25.43,7.84,5.69,5.23,8.56,12.15,8.56,20.83s-2.87,15.14-8.56,20.37c-5.7,5.23-14.17,7.84-25.43,7.84h-194.32c-15.56,0-26.78-3.46-33.61-10.37-6.83-6.92-10.24-18.05-10.24-33.48v-265.37c0-10.29,1.51-18.68,4.55-25.17,3.04-6.49,7.84-11.22,14.34-14.21,6.49-2.95,14.8-4.47,24.92-4.47h188.79c11.39,0,19.86,2.53,25.39,7.59,5.52,5.06,8.3,11.68,8.3,19.86s-2.78,15.05-8.3,20.11c-5.53,5.06-13.96,7.59-25.39,7.59Z"/>
  <path class="st0" d="M1853.93,340.42l137.52,208.06v-210c0-13.66,2.91-23.87,8.77-30.7,5.86-6.83,13.75-10.25,23.74-10.25s18.39,3.42,24.33,10.25c5.95,6.83,8.9,17.04,8.9,30.7v277.64c0,30.99-12.86,46.47-38.54,46.47-6.41,0-12.19-.93-17.33-2.78-5.15-1.85-9.96-4.77-14.47-8.77s-8.69-8.69-12.52-14.08c-3.84-5.4-7.72-10.88-11.56-16.49l-134.14-205.66v206.84c0,13.49-3.12,23.7-9.4,30.57-6.24,6.92-14.3,10.37-24.08,10.37s-18.22-3.5-24.33-10.46c-6.12-6.96-9.15-17.12-9.15-30.45v-272.37c0-11.55,1.26-20.62,3.84-27.2,3.03-7.21,8.09-13.11,15.18-17.71,7.04-4.55,14.67-6.87,22.85-6.87,6.41,0,11.94,1.05,16.49,3.12,4.55,2.07,8.6,4.89,12.06,8.43,3.46,3.54,7,8.1,10.58,13.75,3.59,5.65,7.43,11.47,11.26,17.58Z"/>
  <path class="st0" d="M2365.19,362.61h-78.01v256.47c0,14.76-3.29,25.72-9.87,32.85-6.58,7.13-15.09,10.71-25.51,10.71s-19.23-3.63-25.89-10.84c-6.66-7.21-10-18.13-10-32.77v-256.47h-78.01c-12.19,0-21.25-2.7-27.2-8.06-5.94-5.35-8.9-12.48-8.9-21.29s3.08-16.36,9.28-21.68c6.16-5.31,15.14-7.93,26.86-7.93h227.34c12.35,0,21.55,2.74,27.58,8.18,6.03,5.44,9.02,12.61,9.02,21.42s-3.04,15.94-9.15,21.29c-6.16,5.4-15.31,8.1-27.54,8.1Z"/>
  <path class="st0" d="M2639.51,616.64l-16.87-44.32h-143.54l-16.87,45.29c-6.58,17.67-12.19,29.56-16.87,35.76-4.64,6.16-12.27,9.28-22.85,9.28-8.98,0-16.95-3.29-23.83-9.87-6.91-6.58-10.37-14.04-10.37-22.39,0-4.81.8-9.78,2.4-14.93,1.6-5.14,4.26-12.27,7.93-21.42l90.33-229.27c2.57-6.58,5.65-14.51,9.27-23.74,3.63-9.23,7.47-16.91,11.56-22.98,4.09-6.11,9.49-11.05,16.15-14.8,6.66-3.75,14.88-5.65,24.67-5.65s18.26,1.9,24.92,5.65c6.66,3.75,12.06,8.64,16.15,14.59,4.09,5.95,7.55,12.31,10.37,19.14,2.83,6.83,6.37,15.94,10.71,27.33l92.23,227.8c7.21,17.33,10.84,29.94,10.84,37.83s-3.42,15.69-10.25,22.52c-6.83,6.83-15.06,10.25-24.67,10.25-5.61,0-10.42-1.01-14.46-2.99-4.01-2.02-7.38-4.72-10.12-8.18-2.75-3.46-5.66-8.77-8.78-15.9-3.12-7.21-5.81-13.49-8.05-18.98ZM2497.91,518.64h105.46l-53.22-145.7-52.24,145.7Z"/>
  <path class="st0" d="M2838.92,340.94v256.94h144.97c11.56,0,20.41,2.83,26.61,8.43,6.2,5.61,9.28,12.69,9.28,21.21s-3.04,15.69-9.15,21.08c-6.12,5.4-15.01,8.05-26.74,8.05h-172.68c-15.56,0-26.78-3.46-33.61-10.37-6.83-6.92-10.24-18.05-10.24-33.48v-271.86c0-14.46,3.24-25.3,9.74-32.51,6.49-7.21,15.05-10.84,25.64-10.84s19.48,3.58,26.14,10.71c6.7,7.13,10.04,18.01,10.04,32.64Z"/>
  <path class="st1" d="M567.95,107.9c169.86,0,308.04,138.19,308.04,308.05s-138.19,308.05-308.04,308.05-308.05-138.19-308.05-308.05S398.09,107.9,567.95,107.9ZM567.95,32c-212.07,0-383.95,171.92-383.95,383.95s171.92,383.95,383.95,383.95,383.95-171.92,383.95-383.95S780.02,32,567.95,32Z"/>
</svg>